<svg xmlns="http://www.w3.org/2000/svg" width="214" height="158" viewBox="0 0 214 158">
    <g fill="none" fill-rule="evenodd">
        <path d="M111.922 71.74l.428-.213c3.424-10.035 7.276-20.284 10.914-30.319-8.132 10.035-16.692 20.284-24.61 30.746h13.268v-.213zM200.518 102.273v-.427.427z"/>
        <path fill="#E2021B" fill-rule="nonzero" d="M160.714 8.327l2.782-8.113L125.19 0l-.428.214-26.536 32.88C87.74 45.906 77.468 59.145 66.768 71.742H33.812c-6.42 8.113-13.054 16.227-19.26 24.554 10.914.213 21.614-.214 32.314.213-14.98 20.284-32.1 39.287-46.866 59.784h30.816l21.828-27.33c8.132-10.676 16.692-20.924 25.252-31.386 8.132.213 16.264-.214 24.182.213-4.708 14.52-10.272 28.611-14.98 43.343 8.774.427 18.618.214 26.964.214l34.882-99.284 11.77-33.735zm-48.364 63.2l-.428.214H98.654c7.704-10.463 16.264-20.711 24.61-30.746-3.424 10.248-7.276 20.497-10.914 30.532z"/>
        <path d="M205.868 80.281h-.214.214z"/>
        <path fill="#E2021B" fill-rule="nonzero" d="M177.406 101.419c7.704.427 15.836.427 22.898.64v.427c.214.214 2.996-11.956 5.35-21.991-4.922 0-11.342-.214-15.836-.214 6.42-13.665 16.05-26.262 23.326-39.713l-13.696-.214H160.5c-2.14 5.978-4.066 12.17-6.42 18.149v.64c7.49.427 15.836.214 23.54.64-3.852 6.193-6.634 13.025-10.914 19.003-6.206-.427-12.626-1.067-19.046-1.708l-7.062 19.217-.214.854c4.708 1.28 9.844 1.494 14.552 2.135-2.14 4.057-4.922 7.686-7.276 11.743l-23.112 38.86-2.14 3.843 5.136.213 71.476.214 2.14-.214L214 134.086h-56.924c6.206-11.102 12.84-22.205 20.33-32.667z"/>
    </g>
</svg>
